<svg xmlns="http://www.w3.org/2000/svg" width="128" height="46" viewBox="0 0 128 46" fill="none">
  <g clip-path="url(#clip0_733_11145)">
    <path d="M29.7719 24.4429C29.7191 18.6222 34.2983 15.8255 34.5043 15.6924C31.9268 11.736 27.9234 11.1923 26.4973 11.1312C23.0907 10.765 19.8478 13.2398 18.1154 13.2398C16.383 13.2398 13.7158 11.1812 10.8902 11.2422C7.17191 11.2977 3.74413 13.5117 1.82691 17.0075C-2.02867 24.0323 0.844527 34.4641 4.61032 40.1739C6.4536 42.965 8.64019 46.1112 11.524 45.9947C14.3021 45.8781 15.3478 44.1081 18.6964 44.1081C22.0449 44.1081 22.9903 45.9947 25.9216 45.9392C28.9058 45.8781 30.7966 43.0871 32.624 40.2849C34.7261 37.0388 35.5976 33.9037 35.6504 33.7372C35.5817 33.7095 29.8353 31.3956 29.7719 24.4429Z" fill="black"/>
    <path d="M24.2627 7.34668C25.7943 5.39904 26.8242 2.69674 26.5443 0C24.3419 0.0943305 21.6747 1.54258 20.0955 3.49023C18.68 5.21037 17.4388 7.96261 17.7768 10.6039C20.2222 10.8036 22.7363 9.28878 24.2627 7.34668ZM49.0863 30.1636L46.5511 38.2372H43.2923L51.5897 12.5793H55.3925L63.7216 38.2372H60.3519L57.7428 30.1636H49.0863ZM57.0932 27.5723L54.7059 20.1867C54.1619 18.511 53.8027 16.9906 53.4383 15.5035H53.3696C53.0052 17.0239 52.6091 18.5831 52.139 20.1479L49.7517 27.5667L57.0932 27.5723ZM66.1934 25.8244C66.1934 23.4661 66.1248 21.5573 66.0455 19.8094H68.9082L69.0561 22.9723H69.1247C70.4293 20.725 72.4944 19.3932 75.357 19.3932C79.5982 19.3932 82.783 23.1609 82.783 28.7597C82.783 35.385 78.9432 38.6533 74.813 38.6533C72.4944 38.6533 70.4662 37.5879 69.4152 35.7624H69.3465V45.7725H66.1934V25.8244ZM69.3413 30.7351C69.3413 31.2345 69.4099 31.684 69.4891 32.1057C70.0701 34.4251 71.9874 36.0287 74.2743 36.0287C77.644 36.0287 79.6034 33.1378 79.6034 28.9095C79.6034 25.214 77.7549 22.0622 74.3852 22.0622C72.2145 22.0622 70.1863 23.6992 69.5631 26.2128C69.4522 26.629 69.3465 27.1283 69.3465 27.5834L69.3413 30.7351ZM86.0787 25.8244C86.0787 23.4661 86.01 21.5573 85.9308 19.8094H88.7935L88.9413 22.9723H89.01C90.3146 20.725 92.3797 19.3932 95.2423 19.3932C99.4835 19.3932 102.668 23.1609 102.668 28.7597C102.668 35.385 98.8285 38.6533 94.6983 38.6533C92.3797 38.6533 90.3515 37.5879 89.3005 35.7624H89.2318V45.7725H86.0787V25.8244ZM89.2318 30.7351C89.2318 31.2345 89.3005 31.684 89.3797 32.1057C89.9607 34.4251 91.8779 36.0287 94.1649 36.0287C97.5345 36.0287 99.494 33.1378 99.494 28.9095C99.494 25.214 97.6455 22.0622 94.2758 22.0622C92.105 22.0622 90.0769 23.6992 89.4537 26.2128C89.3428 26.629 89.2371 27.1283 89.2371 27.5834L89.2318 30.7351ZM105.969 11.2087H109.159V38.2316H105.969V11.2087ZM115.571 29.6309C115.64 34.1587 118.397 36.0287 121.582 36.0287C123.863 36.0287 125.242 35.6125 126.436 35.0799L126.98 37.477C125.86 38.0097 123.937 38.62 121.149 38.62C115.751 38.62 112.524 34.8912 112.524 29.3312C112.524 23.7713 115.64 19.3932 120.747 19.3932C126.473 19.3932 127.994 24.6813 127.994 28.0717C127.994 28.7597 127.925 29.2869 127.883 29.6309H115.571ZM124.92 27.2338C124.957 25.103 124.085 21.7904 120.499 21.7904C117.272 21.7904 115.862 24.9144 115.608 27.2338H124.92Z" fill="black"/>
  </g>
  <defs>
    <clipPath id="clip0_733_11145">
      <rect width="128" height="46" fill="white"/>
    </clipPath>
  </defs>
</svg>