<svg xmlns="http://www.w3.org/2000/svg" width="189" height="53" viewBox="0 0 189 53" fill="none">
  <path d="M21.2689 31.6724C21.2689 33.5368 21.6673 34.9683 22.1881 35.8343C22.8709 36.9686 23.8894 37.4492 24.9276 37.4492C26.2668 37.4492 27.4919 37.1079 29.8528 33.7542C31.7441 31.0662 33.9728 27.2931 35.4723 24.9277L38.0118 20.9203C39.7758 18.1372 41.8176 15.0433 44.1587 12.9462C46.0699 11.2346 48.1315 10.2837 50.2064 10.2837C53.6899 10.2837 57.008 12.357 59.5475 16.2456C62.3267 20.5043 63.6757 25.8684 63.6757 31.4041C63.6757 34.6949 63.0442 37.113 61.9695 39.0233C60.9313 40.8707 58.9077 42.7165 55.5035 42.7165V37.4492C58.4183 37.4492 59.1457 34.6983 59.1457 31.5501C59.1457 27.0639 58.1273 22.0852 55.8838 18.5277C54.2917 16.0044 52.2284 14.4626 49.9584 14.4626C47.5033 14.4626 45.5276 16.3644 43.3072 19.7554C42.1268 21.5571 40.9149 23.7527 39.5543 26.2301L38.0564 28.9555C35.0474 34.4351 34.2852 35.6832 32.7807 37.7429C30.1438 41.3496 27.892 42.7165 24.9276 42.7165C21.4111 42.7165 19.1874 41.1526 17.8102 38.7957C16.686 36.8752 16.1338 34.3553 16.1338 31.4839L21.2689 31.6724Z" fill="#0081FB"/>
  <path d="M20.1836 16.6179C22.5379 12.8907 25.9354 10.2842 29.8322 10.2842C32.0889 10.2842 34.3324 10.9702 36.6751 12.9348C39.2377 15.0829 41.969 18.6199 45.3764 24.4493L46.5982 26.5414C49.5476 31.588 51.2257 34.1843 52.2078 35.4086C53.4709 36.981 54.3554 37.4497 55.5044 37.4497C58.4192 37.4497 59.1466 34.6988 59.1466 31.5506L63.6766 31.4046C63.6766 34.6954 63.0451 37.1134 61.9704 39.0238C60.9322 40.8712 58.9086 42.717 55.5044 42.717C53.3882 42.717 51.5134 42.245 49.4402 40.2362C47.8464 38.6943 45.9831 35.9554 44.5497 33.4932L40.2859 26.178C38.1466 22.5068 36.1841 19.7695 35.0483 18.5299C33.8265 17.197 32.2559 15.5872 29.7495 15.5872C27.7209 15.5872 25.9982 17.0492 24.5565 19.2856L20.1836 16.6179Z" fill="url(#paint0_linear_733_11140)"/>
  <path d="M29.7486 15.5867C27.72 15.5867 25.9973 17.0487 24.5556 19.2851C22.5171 22.4452 21.2689 27.1522 21.2689 31.6724C21.2689 33.5368 21.6673 34.9683 22.1881 35.8343L17.8102 38.7957C16.686 36.8752 16.1338 34.3553 16.1338 31.4839C16.1338 26.2624 17.5292 20.8201 20.1827 16.6174C22.537 12.8902 25.9345 10.2837 29.8313 10.2837L29.7486 15.5867Z" fill="url(#paint1_linear_733_11140)"/>
  <path d="M73.6582 11.3091H79.5985L89.6984 30.076L99.8 11.3091H105.611V42.1457H100.766V18.5122L91.9072 34.8781H87.3607L78.504 18.5122V42.1457H73.6582V11.3091ZM120.795 22.8066C117.32 22.8066 115.227 25.4929 114.726 28.8194H126.52C126.277 25.3927 124.353 22.8066 120.795 22.8066ZM109.921 30.7144C109.921 23.7151 114.326 18.6209 120.879 18.6209C127.326 18.6209 131.174 23.6505 131.174 31.088V32.455H114.726C115.309 36.0735 117.647 38.5119 121.417 38.5119C124.424 38.5119 126.304 37.5695 128.086 35.846L130.66 39.0842C128.235 41.3748 125.15 42.6959 121.245 42.6959C114.151 42.6959 109.921 37.3827 109.921 30.7144ZM137.05 23.2481H132.59V19.1728H137.05V12.4332H141.726V19.1728H148.503V23.2481H141.726V33.5774C141.726 37.1042 142.824 38.3574 145.522 38.3574C146.753 38.3574 147.459 38.2487 148.503 38.0704V42.1016C147.203 42.4786 145.963 42.6518 144.621 42.6518C139.573 42.6518 137.05 39.8194 137.05 34.1496V23.2481ZM168.19 27.2114C167.251 24.7764 165.156 22.9832 162.078 22.9832C158.077 22.9832 155.516 25.8988 155.516 30.6482C155.516 35.2788 157.873 38.3353 161.886 38.3353C165.04 38.3353 167.292 36.4505 168.19 34.1055V27.2114ZM172.865 42.1457H168.276V38.9296C166.993 40.823 164.658 42.6959 160.877 42.6959C154.797 42.6959 150.733 37.4676 150.733 30.6482C150.733 23.7643 154.894 18.6209 161.135 18.6209C164.22 18.6209 166.641 19.8877 168.276 22.124V19.1728H172.865V42.1457Z" fill="#192830"/>
  <defs>
    <linearGradient id="paint0_linear_733_11140" x1="26.2197" y1="30.1514" x2="58.9592" y2="31.7613" gradientUnits="userSpaceOnUse">
      <stop stop-color="#0064E1"/>
      <stop offset="0.4" stop-color="#0064E1"/>
      <stop offset="0.83" stop-color="#0073EE"/>
      <stop offset="1" stop-color="#0082FB"/>
    </linearGradient>
    <linearGradient id="paint1_linear_733_11140" x1="23.5736" y1="33.8866" x2="23.5736" y2="21.4909" gradientUnits="userSpaceOnUse">
      <stop stop-color="#0082FB"/>
      <stop offset="1" stop-color="#0064E0"/>
    </linearGradient>
  </defs>
</svg>