<svg xmlns="http://www.w3.org/2000/svg" width="204" height="37" viewBox="0 0 204 37" fill="none">
  <g clip-path="url(#clip0_733_11093)">
    <path d="M32.6688 16.6462C32.6688 16.6462 31.8053 18.6816 30.5821 20.5716C29.5027 22.1708 27.4159 25.2238 23.0985 26.9684C26.7683 24.6423 27.9196 23.2612 29.2149 21.2258C30.654 18.9724 31.2297 17.3731 31.6614 15.047C32.0932 12.7209 32.1651 8.94092 32.1651 8.94092H30.2223C30.2223 8.94092 30.5101 11.1217 30.2942 13.3751C30.1503 15.2651 29.8625 19.1177 26.8403 22.825C25.6889 24.2788 24.3217 25.5873 22.4508 26.6777C19.8604 28.1315 17.126 28.6403 17.126 28.6403C21.7313 28.4949 23.4583 27.8407 25.617 26.7503C27.9916 25.5146 29.2868 24.4242 30.7979 22.6069C32.309 20.7896 34.2519 17.5912 34.2519 17.5912L32.6688 16.6462Z" fill="#696C71"/>
    <path d="M38.9294 9.37744H45.1897L52.6733 19.627H52.7453V9.37744H57.9982V25.733H52.0257L44.1823 15.4108H44.1103V25.733H38.8574V9.37744H38.9294Z" fill="#696C71"/>
    <path d="M65.9848 9.37744H72.6049L79.5848 25.733H73.7563L72.7489 23.0435H65.625L64.6176 25.733H58.7891L65.9848 9.37744ZM69.2229 13.5209L66.9203 19.6996H71.4536L69.2229 13.5209Z" fill="#696C71"/>
    <path d="M80.5205 9.37695H86.7808L94.2644 19.6265H94.3364V9.37695H99.5893V25.7326H93.6168L85.8454 15.4104H85.7734V25.7326H80.5205V9.37695Z" fill="#696C71"/>
    <path d="M112.038 8.86816C117.794 8.86816 122.616 10.7581 122.616 17.5912C122.616 24.3515 117.794 26.3141 112.038 26.3141C106.281 26.3141 101.46 24.4242 101.46 17.5912C101.46 10.7581 106.281 8.86816 112.038 8.86816ZM112.038 22.6069C114.916 22.6069 116.859 21.0077 116.859 17.5912C116.859 14.1746 114.916 12.5754 112.038 12.5754C109.159 12.5754 107.217 14.1746 107.217 17.5912C107.145 21.0077 109.087 22.6069 112.038 22.6069Z" fill="#696C71"/>
    <path d="M124.415 9.37695H136.432C140.821 9.37695 142.404 11.7758 142.404 14.8288C142.404 17.5184 141.037 20.2807 136.648 20.2807H129.812V25.7326H124.415V9.37695ZM129.884 16.9369H134.705C136.216 16.9369 136.864 16.2827 136.864 14.9015C136.864 13.4477 136.216 12.8661 134.705 12.8661H129.884V16.9369Z" fill="#696C71"/>
    <path d="M154.349 8.86816C160.106 8.86816 164.927 10.7581 164.927 17.5912C164.927 24.3515 160.106 26.3141 154.349 26.3141C148.593 26.3141 143.771 24.4242 143.771 17.5912C143.771 10.7581 148.665 8.86816 154.349 8.86816ZM154.349 22.6069C157.228 22.6069 159.17 21.0077 159.17 17.5912C159.17 14.1746 157.228 12.5754 154.349 12.5754C151.471 12.5754 149.528 14.1746 149.528 17.5912C149.528 21.0077 151.471 22.6069 154.349 22.6069Z" fill="#696C71"/>
    <path d="M166.941 9.37744H179.894C183.851 9.37744 185.291 11.1947 185.291 13.957C185.291 16.1378 184.139 17.3008 182.7 17.6643V17.737C183.708 18.1004 184.499 18.9 184.643 20.6446C184.859 23.9158 185.003 24.9334 185.65 25.733H179.75C179.462 25.0061 179.462 24.0611 179.462 23.3342C179.462 20.79 178.599 20.2812 177.231 20.2812H172.266V25.733H166.941V9.37744ZM172.338 16.6466H177.519C178.814 16.6466 179.534 15.9924 179.534 14.8293C179.534 13.7389 178.814 13.0847 177.519 13.0847H172.338V16.6466Z" fill="#696C71"/>
    <path d="M187.378 9.37695H203.64V12.9388H192.847V15.9192H202.993V19.3357H192.847V22.316H203.64V25.8779H187.378V9.37695Z" fill="#696C71"/>
    <path d="M145.714 34.892V28.4224H142.907V27.9136H148.952V28.4224H146.217V34.892H145.714Z" fill="#007B9A"/>
    <path d="M150.535 35.0374C148.808 35.0374 147.801 34.0198 147.801 32.3479C147.801 31.4029 148.376 29.731 150.607 29.731C152.262 29.731 153.342 30.8213 153.342 32.4932V32.5659H148.376C148.448 33.8017 149.312 34.6013 150.679 34.6013C152.19 34.6013 152.55 33.6563 152.694 33.2202H153.198H153.27V33.2928C152.694 34.4559 151.83 35.0374 150.535 35.0374ZM152.622 32.0571C152.478 30.894 151.615 30.2398 150.463 30.2398C149.312 30.2398 148.52 30.894 148.304 32.0571H152.622Z" fill="#007B9A"/>
    <path d="M156.651 35.0374C154.996 35.0374 153.845 33.9471 153.845 32.4205C153.845 30.5306 155.284 29.731 156.651 29.731C158.162 29.731 159.17 30.6033 159.242 31.4756V31.5482H158.738C158.666 30.894 157.802 30.2398 156.651 30.2398C155.068 30.2398 154.348 31.3302 154.348 32.4932C154.348 33.3655 154.924 34.6013 156.651 34.6013C157.515 34.6013 158.522 34.2378 158.738 33.1475L159.242 33.0748H159.314V33.1475C159.026 34.3105 158.018 35.0374 156.651 35.0374Z" fill="#007B9A"/>
    <path d="M164.351 34.892V31.8389C164.351 31.0393 164.135 30.2397 162.624 30.2397C161.113 30.2397 160.609 31.1847 160.609 31.9843V34.892H160.033V27.9136H160.609V30.7485C160.825 30.3124 161.4 29.7309 162.624 29.7309C164.926 29.7309 164.926 31.2574 164.926 31.8389V34.892H164.351Z" fill="#007B9A"/>
    <path d="M170.18 34.8921V31.839C170.18 31.0394 169.964 30.2398 168.453 30.2398C166.942 30.2398 166.438 31.1848 166.438 31.9844V34.8921H165.862V29.8763H166.438V30.7486C166.654 30.3125 167.23 29.731 168.453 29.731C170.755 29.731 170.755 31.2575 170.755 31.839V34.8921H170.18Z" fill="#007B9A"/>
    <path d="M174.281 35.0374C172.41 35.0374 171.475 33.7289 171.475 32.3478C171.475 30.9667 172.41 29.6582 174.281 29.6582C176.152 29.6582 177.087 30.9667 177.087 32.3478C177.087 33.7289 176.152 35.0374 174.281 35.0374ZM174.281 30.167C172.698 30.167 171.978 31.3301 171.978 32.3478C171.978 33.3655 172.698 34.5285 174.281 34.5285C175.864 34.5285 176.584 33.3655 176.584 32.3478C176.584 31.3301 175.864 30.167 174.281 30.167Z" fill="#007B9A"/>
    <path d="M178.454 27.9136H177.878V34.892H178.454V27.9136Z" fill="#007B9A"/>
    <path d="M181.98 35.0374C180.109 35.0374 179.174 33.7289 179.174 32.3478C179.174 30.9667 180.109 29.6582 181.98 29.6582C183.851 29.6582 184.787 30.9667 184.787 32.3478C184.787 33.7289 183.851 35.0374 181.98 35.0374ZM181.98 30.167C180.397 30.167 179.678 31.3301 179.678 32.3478C179.678 33.3655 180.397 34.5285 181.98 34.5285C183.563 34.5285 184.283 33.3655 184.283 32.3478C184.283 31.3301 183.563 30.167 181.98 30.167Z" fill="#007B9A"/>
    <path d="M188.097 37.0001C186.442 37.0001 185.651 36.4913 185.507 35.3282V35.2555H186.011C186.155 36.1278 186.802 36.564 188.097 36.564C189.537 36.564 190.256 35.9097 190.256 34.674V33.8017C189.824 34.5286 189.033 34.8921 188.025 34.8921C186.011 34.8921 185.291 33.5836 185.291 32.2752C185.291 31.1121 186.011 29.731 188.025 29.731C189.105 29.731 189.824 30.0944 190.256 30.7486V29.8763H190.832V34.6013C190.832 36.2005 189.968 37.0001 188.097 37.0001ZM188.025 30.1671C187.018 30.1671 185.867 30.6759 185.867 32.2025C185.867 33.5836 186.658 34.3105 188.097 34.3105C189.465 34.3105 190.328 33.5109 190.328 32.2025C190.328 30.9667 189.465 30.1671 188.025 30.1671Z" fill="#007B9A"/>
    <path d="M191.91 34.892V29.8762H192.486V34.892H191.91ZM191.91 29.0039V27.9136H192.486V29.0039H191.91Z" fill="#007B9A"/>
    <path d="M196.012 35.0374C194.285 35.0374 193.277 34.0198 193.277 32.3479C193.277 31.4029 193.853 29.731 196.084 29.731C197.739 29.731 198.818 30.8213 198.818 32.4932V32.5659H193.853C193.925 33.8017 194.788 34.6013 196.156 34.6013C197.667 34.6013 198.027 33.6563 198.17 33.2202H198.674H198.746V33.2928C198.17 34.4559 197.307 35.0374 196.012 35.0374ZM198.098 32.0571C197.955 30.894 197.091 30.2398 195.94 30.2398C194.788 30.2398 193.997 30.894 193.781 32.0571H198.098Z" fill="#007B9A"/>
    <path d="M201.552 35.0374C200.041 35.0374 199.177 34.4558 199.105 33.2928V33.2201H199.609C199.681 33.8016 199.825 34.5285 201.696 34.5285C202.919 34.5285 203.423 34.2378 203.423 33.5109C203.423 33.002 203.135 32.7839 202.487 32.6386L200.76 32.4205C200.257 32.3478 199.321 32.1297 199.321 31.112C199.321 30.3851 199.897 29.6582 201.408 29.6582C202.919 29.6582 203.639 30.167 203.711 31.3301V31.4028H203.207C203.063 30.5305 202.559 30.167 201.336 30.167C200.329 30.167 199.825 30.5305 199.825 31.112C199.825 31.5482 200.113 31.839 200.76 31.9116L202.344 32.1297C203.423 32.2751 203.927 32.7112 203.927 33.5109C203.999 34.2378 203.567 35.0374 201.552 35.0374Z" fill="#007B9A"/>
    <path d="M42.0956 7.41466C39.2173 7.41466 38.4258 5.01584 38.4258 3.78009C38.4258 2.54433 39.2173 0.145508 42.0956 0.145508C44.9739 0.145508 45.7655 2.54433 45.7655 3.78009C45.7655 5.01584 44.9739 7.41466 42.0956 7.41466ZM42.0956 0.581657C40.0088 0.581657 39.0014 2.18087 39.0014 3.70739C39.0014 5.30661 40.0808 6.83313 42.0956 6.83313C44.1104 6.83313 45.1898 5.23392 45.1898 3.70739C45.1898 2.18087 44.1104 0.581657 42.0956 0.581657Z" fill="#007B9A"/>
    <path d="M50.6591 7.19638L48.6442 5.01563L46.5575 7.19638H45.9818H45.8379L48.2845 4.57949L46.0538 2.18066H46.7733L48.6442 4.21603L50.4432 2.18066H51.0908H51.1628L48.9321 4.57949L51.4506 7.19638H50.6591Z" fill="#007B9A"/>
    <path d="M52.8173 7.19659V2.68971H51.666V2.18087H52.8173V1.45396C52.8173 0.799732 52.9612 0.145508 54.1126 0.145508C54.3284 0.145508 54.6163 0.145508 54.8321 0.218199H54.9041V0.290891V0.72704H54.8321C54.6163 0.72704 54.4004 0.654349 54.1126 0.654349C53.8967 0.654349 53.321 0.654349 53.321 1.38126V2.18087H54.7602V2.68971H53.321V7.26928H52.8173V7.19659Z" fill="#007B9A"/>
    <path d="M57.6384 7.41482C55.7675 7.41482 54.832 6.10637 54.832 4.72523C54.832 3.34409 55.7675 2.03564 57.6384 2.03564C59.5093 2.03564 60.4447 3.41678 60.4447 4.72523C60.4447 6.03368 59.5093 7.41482 57.6384 7.41482ZM57.6384 2.54449C56.1273 2.54449 55.4077 3.63486 55.4077 4.72523C55.4077 5.81561 56.1273 6.90598 57.7103 6.90598C59.2934 6.90598 60.013 5.74291 60.013 4.72523C60.013 3.70755 59.2215 2.54449 57.6384 2.54449Z" fill="#007B9A"/>
    <path d="M61.4521 7.19674V2.18103H62.0278V3.19871C62.3156 2.47179 63.1072 2.03564 64.0426 2.03564C64.1865 2.03564 64.2585 2.03564 64.4024 2.10834L64.4744 2.61718V2.68987H64.4024C64.3305 2.68987 64.1865 2.61718 63.8987 2.61718C62.6035 2.61718 62.0278 3.63486 62.0278 4.50716V7.19674H61.4521Z" fill="#007B9A"/>
    <path d="M67.2093 7.41472C65.4104 7.41472 64.5469 6.03359 64.5469 4.72514C64.5469 3.12592 65.6262 2.03555 67.2093 2.03555C68.5046 2.03555 69.0802 2.76247 69.368 3.12592V0.218262H69.9437V7.19665H69.368V6.25166C69.0802 6.83319 68.3606 7.41472 67.2093 7.41472ZM67.2093 2.54439C66.1299 2.54439 65.0506 3.19862 65.0506 4.72514C65.0506 6.03359 65.9141 6.90588 67.1374 6.90588C68.7924 6.90588 69.368 5.81551 69.368 4.79783C69.368 3.12592 68.2887 2.54439 67.2093 2.54439Z" fill="#007B9A"/>
    <path d="M26.4804 28.8585C28.7111 28.0589 31.9492 26.3143 31.9492 26.3143L31.0138 24.5697C31.0138 24.5697 29.2868 25.8782 27.272 26.8959C25.545 27.6955 22.163 29.3674 17.5577 28.6405C21.5153 28.4951 24.9693 26.3143 26.8402 23.0432C26.8402 23.0432 26.8402 23.0432 26.8402 22.9705C26.9841 22.7525 27.0561 22.5344 27.2 22.2436C29.0709 18.609 29.3587 16.8644 29.4307 14.611C29.5746 11.9214 29.2868 10.2495 28.4952 7.99607C27.7037 5.74263 25.9767 2.47151 25.9767 2.47151L24.2497 3.4165C24.2497 3.4165 25.545 5.1611 26.5524 7.19646C27.3439 8.94106 28.9989 12.2849 28.2794 16.9371C28.0635 12.5756 27.4878 10.831 26.4085 8.72299C25.1852 6.32416 24.1058 5.01572 22.3069 3.48919C20.5799 1.96267 17.4138 0 17.4138 0L16.4063 1.67191C16.4063 1.67191 18.4212 2.5442 20.2921 3.77996C21.8751 4.87033 24.8974 6.97839 26.6243 11.4126C26.6243 11.3399 26.5524 11.3399 26.5524 11.2672C26.4804 11.1945 26.4085 11.0491 26.3365 10.9764C24.1778 7.55992 22.8106 6.46955 20.9397 5.23379C18.709 3.77996 17.1259 3.19843 14.8233 2.76228C12.5206 2.32613 8.77884 2.25344 8.77884 2.25344V4.21611C8.77884 4.21611 10.9376 3.92534 13.1683 4.14342C15.0392 4.2888 18.709 4.57957 22.3788 7.48723C18.5651 5.45187 16.8381 5.1611 14.4635 5.01572C11.8011 4.87033 10.146 5.1611 7.91534 5.96071C5.68466 6.76031 2.44656 8.50491 2.44656 8.50491L3.38201 10.1768C3.38201 10.1768 5.10899 8.86837 7.12381 7.85069C8.85079 7.05108 12.1608 5.37917 16.8381 6.10609C16.5503 6.10609 16.2624 6.10609 15.9746 6.17878C12.2328 6.39686 10.6497 6.97839 8.63492 7.99607C6.26032 9.23183 4.96508 10.3222 3.45397 12.1395C1.94286 13.9568 0 17.1552 0 17.1552L1.65503 18.1729C1.65503 18.1729 2.51852 16.1375 3.7418 14.2475C4.82116 12.721 6.83598 9.59528 11.1534 7.92338C11.0095 7.99607 10.7937 8.14145 10.6497 8.28684C7.41164 10.3949 6.33228 11.776 5.10899 13.666C3.66984 15.9194 3.09418 17.5187 2.66243 19.8448C2.30265 22.0982 2.15873 25.8782 2.15873 25.8782H4.10159C4.10159 25.8782 3.81376 23.6974 4.02963 21.444C4.17355 19.554 4.46138 15.8468 7.33968 12.2122C7.33968 12.2849 7.26773 12.2849 7.26773 12.3576C5.32487 16.0648 5.03704 17.8821 4.89312 20.1356C4.74921 22.8251 5.03704 24.4971 5.82857 26.7505C6.62011 29.0039 8.34709 32.275 8.34709 32.275L10.0741 31.3301C10.0741 31.3301 8.77884 29.5855 7.77143 27.5501C6.97989 25.8055 5.32487 22.4617 6.04444 17.8094C6.26032 22.1709 6.83598 23.9155 7.91534 26.0236C9.13863 28.4224 10.218 29.7308 12.0169 31.2574C13.8159 32.7839 16.982 34.7466 16.982 34.7466L17.9894 33.0747C17.9894 33.0747 15.9746 32.2024 14.1037 30.9666C12.5206 29.8762 9.49841 27.7682 7.77143 23.334C10.0741 27.0413 11.4413 28.2043 13.4561 29.5128C15.6868 30.9666 17.2698 31.5481 19.5725 31.9843C21.8751 32.4204 25.6169 32.4931 25.6169 32.4931V30.5305C25.6169 30.5305 23.4582 30.8212 21.2275 30.6031C19.3566 30.4578 15.6868 30.167 12.0169 27.2593C15.8307 29.2947 17.6296 29.5855 19.9323 29.7308C22.5947 29.9489 24.2497 29.6582 26.4804 28.8585ZM17.1979 7.19646C22.7386 7.19646 27.272 11.776 27.272 17.3733C27.272 22.9705 22.7386 27.5501 17.1979 27.5501C11.6571 27.5501 7.12381 22.9705 7.12381 17.3733C7.12381 11.776 11.6571 7.19646 17.1979 7.19646Z" fill="#007B9A"/>
  </g>
  <defs>
    <clipPath id="clip0_733_11093">
      <rect width="204" height="37" fill="white"/>
    </clipPath>
  </defs>
</svg>