<svg width="100" height="102" viewBox="0 0 100 102" fill="none" xmlns="http://www.w3.org/2000/svg">
<path d="M45.9451 35.5695C44.7281 35.9006 43.5702 36.3773 42.4918 36.9801C42.2135 36.7475 41.9909 36.4398 41.8582 36.0727L35.5947 18.751C35.1957 17.647 35.7612 16.4265 36.858 16.0248C37.0965 15.9373 37.3405 15.8962 37.58 15.8962C38.4432 15.8962 39.2537 16.4325 39.5658 17.2959L45.8293 34.6175C45.9431 34.9327 45.9784 35.2573 45.9451 35.5695Z" fill="#34C347"/>
<path d="M34.9517 4.52899C34.5525 3.42515 33.34 2.85601 32.2434 3.25777C31.1468 3.65954 30.5814 4.88006 30.9805 5.9839L33.5014 12.9557C33.9006 14.0596 35.1131 14.6287 36.2097 14.227C37.3063 13.8252 37.8717 12.6047 37.4726 11.5008L34.9517 4.52899Z" fill="#34C347"/>
<path d="M35.0184 46.6325C34.7064 47.821 34.5304 49.0651 34.5086 50.3472C34.1682 50.4742 33.791 50.5147 33.4079 50.4467L15.3733 47.2458C14.2243 47.0417 13.457 45.9387 13.6593 44.7817C13.8402 43.7502 14.7317 43.0239 15.738 43.0239C15.8598 43.0239 15.983 43.0344 16.1072 43.0564L34.1418 46.2574C34.4698 46.3154 34.7665 46.4469 35.0184 46.6325Z" fill="#34C347"/>
<path d="M2.81474 40.6975C1.66549 40.4936 0.569564 41.266 0.36692 42.4228C0.164275 43.5797 0.931654 44.6828 2.08091 44.8868L9.3396 46.1751C10.4889 46.3791 11.5848 45.6067 11.7874 44.4499C11.9901 43.293 11.2227 42.1899 10.0734 41.9859L2.81474 40.6975Z" fill="#34C347"/>
<path d="M42.0117 63.9952C41.9506 64.3544 41.7971 64.7021 41.5476 65.0017L29.7765 79.1224C29.0266 80.0223 27.6938 80.1399 26.7998 79.3846C26.3018 78.9639 26.0449 78.3611 26.0449 77.7543C26.0449 77.2716 26.2069 76.7869 26.5394 76.3882L38.3105 62.2675C38.5257 62.0094 38.7886 61.8158 39.0753 61.6887C39.9559 62.5706 40.9418 63.346 42.0117 63.9952Z" fill="#34C347"/>
<path d="M17.865 86.7957C17.1149 87.6956 17.2315 89.0372 18.1255 89.7923C19.0194 90.5473 20.3522 90.4299 21.1024 89.5301L25.8401 83.8466C26.5903 82.9467 26.4736 81.6052 25.5797 80.8501C24.6857 80.095 23.3529 80.2124 22.6028 81.1122L17.865 86.7957Z" fill="#34C347"/>
<path d="M63.1421 85.229C62.9035 85.3165 62.6595 85.3575 62.42 85.3575C61.5568 85.3575 60.7463 84.8213 60.4342 83.9579L54.1707 66.6362C54.0569 66.3211 54.0217 65.9964 54.055 65.6843C55.272 65.3532 56.4298 64.8764 57.5082 64.2737C57.7865 64.5063 58.0091 64.8139 58.1418 65.1811L64.4053 82.5027C64.8043 83.6067 64.2388 84.8273 63.1421 85.229Z" fill="#34C347"/>
<path d="M65.0503 96.725C65.4494 97.8289 66.662 98.398 67.7586 97.9963C68.8552 97.5945 69.4206 96.374 69.0214 95.2701L66.5005 88.2983C66.1014 87.1945 64.8889 86.6253 63.7923 87.0271C62.6957 87.4288 62.1302 88.6494 62.5294 89.7532L65.0503 96.725Z" fill="#34C347"/>
<path d="M86.3411 56.4716C86.1607 57.5031 85.2687 58.2294 84.2629 58.2294C84.1411 58.2294 84.0179 58.2189 83.8936 58.1969L65.859 54.996C65.531 54.9379 65.2344 54.8064 64.9824 54.6208C65.2945 53.4323 65.4704 52.1882 65.4923 50.9062C65.8327 50.7791 66.2099 50.7386 66.593 50.8066L84.6271 54.0075C85.7765 54.2116 86.5438 55.3146 86.3411 56.4716Z" fill="#34C347"/>
<path d="M97.1853 60.556C98.3345 60.76 99.4304 59.9875 99.6331 58.8307C99.8357 57.6739 99.0683 56.5707 97.9191 56.3667L90.6604 55.0784C89.5112 54.8744 88.4152 55.6469 88.2126 56.8037C88.0099 57.9605 88.7773 59.0637 89.9266 59.2677L97.1853 60.556Z" fill="#34C347"/>
<path d="M73.957 23.4996C73.957 23.9823 73.795 24.467 73.4626 24.8657L61.6915 38.9865C61.4763 39.2446 61.2134 39.4382 60.9267 39.5652C60.0461 38.6833 59.0602 37.908 57.9902 37.2587C58.0514 36.8995 58.2049 36.5519 58.4544 36.2522L70.2255 22.1315C70.9754 21.2316 72.3082 21.114 73.2022 21.8694C73.7001 22.2901 73.957 22.8928 73.957 23.4996Z" fill="#34C347"/>
<path d="M82.1389 14.4574C82.889 13.5576 82.7724 12.216 81.8784 11.4609C80.9845 10.7059 79.6517 10.8232 78.9016 11.7231L74.1638 17.4066C73.4137 18.3064 73.5303 19.648 74.4242 20.4031C75.3182 21.1582 76.651 21.0408 77.4011 20.1409L82.1389 14.4574Z" fill="#34C347"/>
<path d="M41.072 37.8764C40.0533 38.5997 39.125 39.4446 38.3085 40.389C37.9671 40.266 37.652 40.0534 37.4021 39.7532L33.9945 35.6659C33.2442 34.766 33.3609 33.4244 34.2549 32.6691C34.651 32.3349 35.1325 32.1719 35.6121 32.1719C36.2149 32.1719 36.8137 32.43 37.2316 32.9312L40.6392 37.019C40.8539 37.2766 40.9975 37.5708 41.072 37.8764Z" fill="#77D4FD"/>
<path d="M20.1951 12.4902C19.445 11.5903 18.1122 11.473 17.2183 12.228C16.3243 12.9831 16.2077 14.3247 16.9578 15.2245L30.1503 31.0504C30.9004 31.9502 32.2332 32.0676 33.1271 31.3125C34.0211 30.5575 34.1377 29.2159 33.3876 28.316L20.1951 12.4902Z" fill="#77D4FD"/>
<path d="M35.344 55.7014C35.0682 55.9365 34.7288 56.1031 34.3471 56.1711L29.1267 57.0975C27.9773 57.3016 26.8815 56.5292 26.6788 55.3722C26.6569 55.2472 26.6465 55.1226 26.6465 55.0001C26.6465 53.9871 27.3676 53.0902 28.3927 52.9081L33.6131 51.9817C33.9421 51.9232 34.2671 51.9447 34.5678 52.0333C34.6801 53.3063 34.945 54.5354 35.344 55.7014Z" fill="#77D4FD"/>
<path d="M22.498 53.9538L2.28598 57.5412C1.13673 57.7452 0.369353 58.8483 0.571997 60.0051C0.774641 61.162 1.87057 61.9344 3.01982 61.7304L23.2318 58.143C24.3811 57.939 25.1484 56.8359 24.9458 55.679C24.7431 54.5222 23.6472 53.7498 22.498 53.9538Z" fill="#77D4FD"/>
<path d="M46.9473 67.0439L45.1344 72.0581C44.7354 73.1621 43.5229 73.7314 42.4261 73.3297C41.5679 73.0151 41.0352 72.1992 41.0352 71.3308C41.0352 71.0892 41.0764 70.8436 41.1634 70.6035L42.9762 65.5893C43.09 65.2741 43.2699 65.0025 43.495 64.7849C44.6117 65.3061 45.8004 65.6973 47.0417 65.9389C47.1058 66.2971 47.08 66.6773 46.9473 67.0439Z" fill="#77D4FD"/>
<path d="M39.1153 76.2641L32.0957 95.6774C31.6966 96.7812 32.262 98.0017 33.3586 98.4035C34.4552 98.8052 35.6678 98.2361 36.0669 97.1323L43.0864 77.719C43.4856 76.6152 42.9202 75.3947 41.8236 74.9929C40.727 74.5911 39.5144 75.1603 39.1153 76.2641Z" fill="#77D4FD"/>
<path d="M65.7448 68.5845C65.3487 68.9187 64.8672 69.0818 64.3877 69.0818C63.7849 69.0818 63.186 68.8236 62.7681 68.3224L59.3606 64.2346C59.1459 63.977 59.0023 63.6829 58.9277 63.3772C59.9465 62.6539 60.8748 61.809 61.6912 60.8646C62.0326 60.9877 62.3477 61.2003 62.5977 61.5004L66.0052 65.5877C66.7556 66.4876 66.6388 67.8292 65.7448 68.5845Z" fill="#77D4FD"/>
<path d="M69.8533 70.2027C69.1032 69.3029 67.7704 69.1855 66.8765 69.9406C65.9825 70.6956 65.8659 72.0372 66.616 72.9371L79.8085 88.7629C80.5586 89.6628 81.8914 89.7801 82.7853 89.0251C83.6793 88.27 83.7959 86.9284 83.0458 86.0286L69.8533 70.2027Z" fill="#77D4FD"/>
<path d="M73.3577 46.2544C73.3577 47.2673 72.6366 48.1642 71.6114 48.3463L66.391 49.2727C66.062 49.3313 65.737 49.3098 65.4364 49.2212C65.3241 47.9481 65.0592 46.7191 64.6602 45.5531C64.936 45.318 65.2754 45.1514 65.657 45.0834L70.8774 44.157C72.0269 43.9529 73.1226 44.7252 73.3254 45.8822C73.3472 46.0073 73.3577 46.1318 73.3577 46.2544Z" fill="#77D4FD"/>
<path d="M96.9843 39.5232L76.7723 43.1106C75.6231 43.3146 74.8557 44.4178 75.0583 45.5746C75.261 46.7314 76.3569 47.5039 77.5062 47.2999L97.7181 43.7125C98.8674 43.5085 99.6348 42.4053 99.4321 41.2485C99.2295 40.0917 98.1335 39.3192 96.9843 39.5232Z" fill="#77D4FD"/>
<path d="M58.9681 29.9233C58.9681 30.1649 58.9268 30.4105 58.8398 30.6507L57.027 35.6649C56.9132 35.98 56.7333 36.2516 56.5082 36.4692C55.3915 35.948 54.2029 35.5568 52.9615 35.3152C52.8969 34.9571 52.9232 34.5769 53.0559 34.2102L54.8688 29.196C55.2678 28.092 56.4804 27.5228 57.5771 27.9244C58.4353 28.2391 58.9681 29.0544 58.9681 29.9233Z" fill="#77D4FD"/>
<path d="M63.9375 4.12068L56.918 23.5339C56.5189 24.6378 57.0843 25.8583 58.1809 26.26C59.2775 26.6618 60.49 26.0927 60.8892 24.9888L67.9087 5.57559C68.3078 4.47176 67.7424 3.25123 66.6458 2.84946C65.5492 2.4477 64.3367 3.01684 63.9375 4.12068Z" fill="#77D4FD"/>
<path d="M51.5248 19.939V34.1472C51.5248 34.4839 51.4473 34.802 51.3092 35.0847C50.8793 35.0481 50.444 35.0296 50.0047 35.0296C49.1817 35.0296 48.3742 35.0942 47.5861 35.2187C47.4037 34.9041 47.2988 34.5379 47.2988 34.1472V19.939C47.2988 18.7644 48.245 17.812 49.4118 17.812C49.9957 17.812 50.5235 18.0501 50.9061 18.4353C51.2883 18.82 51.5248 19.3517 51.5248 19.939Z" fill="#5498EE"/>
<path d="M51.5248 2.12694C51.5248 0.952264 50.5788 0 49.4118 0C48.2449 0 47.2988 0.952264 47.2988 2.12694V13.8051C47.2988 14.9798 48.2449 15.9321 49.4118 15.9321C50.5788 15.9321 51.5248 14.9798 51.5248 13.8051V2.12694Z" fill="#5498EE"/>
<path d="M37.2831 41.718C36.5754 42.74 35.986 43.851 35.5353 45.031C35.174 45.0325 34.8073 44.941 34.4719 44.7459L22.248 37.6417C21.2377 37.0545 20.8914 35.7534 21.4748 34.7364C22.0582 33.719 23.3507 33.3703 24.361 33.9576L36.5849 41.0617C36.8741 41.2298 37.1086 41.4564 37.2831 41.718Z" fill="#5498EE"/>
<path d="M9.03472 25.051C8.02409 24.4637 6.73179 24.8122 6.1483 25.8295C5.56481 26.8468 5.91108 28.1476 6.92171 28.735L16.969 34.5741C17.9797 35.1614 19.272 34.8128 19.8555 33.7955C20.439 32.7782 20.0927 31.4774 19.082 30.8901L9.03472 25.051Z" fill="#5498EE"/>
<path d="M37.9602 60.4371C37.7808 60.7548 37.5179 61.0294 37.1809 61.2255L24.9571 68.3291C23.9463 68.9169 22.6543 68.5682 22.0709 67.5508C21.8785 67.2156 21.7871 66.85 21.7871 66.4888C21.7871 65.754 22.1663 65.0392 22.8441 64.6455L35.0679 57.5414C35.3567 57.3733 35.6682 57.2822 35.9793 57.2612C36.5126 58.4022 37.1795 59.4677 37.9602 60.4371Z" fill="#5498EE"/>
<path d="M17.5647 67.7121L7.51742 73.5512C6.50678 74.1385 6.16051 75.4393 6.744 76.4566C7.32749 77.4739 8.61979 77.8225 9.63042 77.2351L19.6777 71.396C20.6884 70.8087 21.0346 69.5079 20.4512 68.4906C19.8677 67.4733 18.5754 67.1247 17.5647 67.7121Z" fill="#5498EE"/>
<path d="M52.7084 67.1066V81.3149C52.7084 82.4894 51.7622 83.4419 50.5954 83.4419C50.0115 83.4419 49.4838 83.2038 49.1011 82.8186C48.719 82.4339 48.4824 81.9022 48.4824 81.3149V67.1066C48.4824 66.77 48.5599 66.4518 48.6981 66.1692C49.128 66.2057 49.5633 66.2242 50.0026 66.2242C50.8255 66.2242 51.633 66.1597 52.4212 66.0352C52.6036 66.3498 52.7084 66.716 52.7084 67.1066Z" fill="#5498EE"/>
<path d="M52.7084 87.4483C52.7084 86.2737 51.7624 85.3214 50.5954 85.3214C49.4284 85.3214 48.4824 86.2737 48.4824 87.4483V99.1265C48.4824 100.301 49.4284 101.253 50.5954 101.253C51.7624 101.253 52.7084 100.301 52.7084 99.1265V87.4483Z" fill="#5498EE"/>
<path d="M78.527 66.5175C78.1354 67.1998 77.4253 67.5815 76.6948 67.5815C76.3365 67.5815 75.9732 67.4894 75.6408 67.2963L63.4165 60.1922C63.1272 60.0241 62.8922 59.7975 62.7188 59.5359C63.4264 58.5139 64.0158 57.4029 64.4665 56.2229C64.8278 56.2214 65.194 56.313 65.5295 56.508L77.7538 63.6122C78.7641 64.1995 79.1104 65.5005 78.527 66.5175Z" fill="#5498EE"/>
<path d="M83.0289 66.6786C82.0182 66.0912 80.7259 66.4398 80.1424 67.4571C79.559 68.4744 79.9052 69.7752 80.9158 70.3625L90.9632 76.2016C91.9738 76.789 93.2661 76.4404 93.8496 75.4231C94.4331 74.4058 94.0868 73.105 93.0762 72.5177L83.0289 66.6786Z" fill="#5498EE"/>
<path d="M78.2219 34.765C78.2219 35.4999 77.8427 36.2147 77.1649 36.6084L64.941 43.7125C64.6523 43.8806 64.3407 43.9716 64.0296 43.9926C63.4964 42.8516 62.8295 41.7862 62.0488 40.8167C62.2282 40.4991 62.4911 40.2245 62.828 40.0284L75.0519 32.9247C76.0626 32.337 77.3547 32.6856 77.9381 33.7031C78.1304 34.0382 78.2219 34.4039 78.2219 34.765Z" fill="#5498EE"/>
<path d="M90.3772 24.0181L80.3299 29.8572C79.3193 30.4445 78.973 31.7453 79.5565 32.7626C80.14 33.7799 81.4323 34.1285 82.4429 33.5412L92.4902 27.7021C93.5009 27.1147 93.8472 25.8139 93.2637 24.7966C92.6802 23.7793 91.3879 23.4308 90.3772 24.0181Z" fill="#5498EE"/>
</svg>
