<svg width="182" height="56" viewBox="0 0 182 56" fill="none" xmlns="http://www.w3.org/2000/svg">
<g clip-path="url(#clip0_342_2075)">
<path d="M75.6618 19.1453H80.1393V36.1743C80.1393 38.9417 79.2325 41.0523 77.4205 42.5067C75.6084 43.9611 73.4218 44.689 70.8635 44.689C68.9446 44.689 67.2554 44.3191 65.799 43.5796C64.3412 42.8401 63.2218 41.7556 62.4396 40.3247L66.3501 38.0714C67.2496 39.7396 68.8014 40.5751 71.0054 40.5751C72.4502 40.5751 73.5883 40.1936 74.417 39.4309C75.247 38.6667 75.662 37.582 75.662 36.1743V34.2427C74.3112 36.0551 72.4153 36.962 69.9741 36.962C67.533 36.962 65.3592 36.0739 63.6659 34.2967C61.9723 32.5208 61.125 30.356 61.125 27.8027C61.125 25.2494 61.9781 23.1167 63.6832 21.3275C65.3898 19.5384 67.4868 18.6445 69.9741 18.6445C72.4615 18.6445 74.3112 19.5514 75.662 21.3638V19.1453H75.6618ZM67.1133 31.3267C68.0489 32.2452 69.2392 32.7039 70.6854 32.7039C72.1317 32.7039 73.3204 32.2455 74.2576 31.3267C75.1932 30.4096 75.6618 29.2333 75.6618 27.8024C75.6618 26.3716 75.1932 25.2331 74.2576 24.3146C73.3204 23.3975 72.1303 22.9374 70.6854 22.9374C69.2406 22.9374 68.0491 23.3975 67.1133 24.3146C66.1777 25.2331 65.7091 26.3962 65.7091 27.8024C65.7091 29.2087 66.1777 30.4096 67.1133 31.3267Z" fill="#0E2E51"/>
<path d="M86.3945 29.9861C87.0107 32.2278 88.6809 33.3488 91.4054 33.3488C93.1581 33.3488 94.4859 32.7521 95.3854 31.5597L99.0818 33.7054C97.3291 36.2587 94.7462 37.5341 91.3345 37.5341C88.3959 37.5341 86.0386 36.6402 84.2611 34.8511C82.4837 33.0619 81.5957 30.8086 81.5957 28.0893C81.5957 25.3701 82.4722 23.1471 84.2262 21.345C85.9789 19.5456 88.2293 18.6445 90.9786 18.6445C93.5847 18.6445 95.735 19.5514 97.43 21.3638C99.1236 23.1762 99.9709 25.4179 99.9709 28.0893C99.9709 28.6861 99.9116 29.3179 99.7931 29.9861H86.3942H86.3945ZM86.3236 26.4078H95.3854C95.1252 25.1908 94.587 24.2853 93.7685 23.6885C92.9514 23.0932 92.0216 22.7947 90.9789 22.7947C89.7467 22.7947 88.7271 23.1106 87.9232 23.7422C87.1162 24.3741 86.5841 25.2619 86.3236 26.4075V26.4078Z" fill="#0E2E51"/>
<path d="M111.273 18.6445C113.215 18.6445 114.82 19.301 116.089 20.6127C117.356 21.9243 117.99 23.7367 117.99 26.0498V37.0333H113.406V26.6219C113.406 25.4298 113.085 24.5185 112.446 23.8852C111.806 23.2534 110.953 22.9377 109.887 22.9377C108.701 22.9377 107.754 23.3076 107.044 24.0471C106.333 24.7866 105.977 25.896 105.977 27.3733V37.0336H101.393V19.1453H105.977V21.1483C107.091 19.48 108.856 18.6445 111.273 18.6445Z" fill="#0E2E51"/>
<path d="M123.998 29.9861C124.614 32.2278 126.284 33.3488 129.009 33.3488C130.762 33.3488 132.089 32.7521 132.989 31.5597L136.685 33.7054C134.933 36.2587 132.35 37.5341 128.938 37.5341C125.999 37.5341 123.642 36.6402 121.865 34.8511C120.087 33.0619 119.199 30.8086 119.199 28.0893C119.199 25.3701 120.076 23.1471 121.83 21.345C123.582 19.5456 125.833 18.6445 128.582 18.6445C131.188 18.6445 133.339 19.5514 135.034 21.3638C136.727 23.1762 137.574 25.4179 137.574 28.0893C137.574 28.6861 137.515 29.3179 137.397 29.9861H123.998H123.998ZM123.927 26.4078H132.989C132.729 25.1908 132.191 24.2853 131.372 23.6885C130.555 23.0932 129.625 22.7947 128.582 22.7947C127.35 22.7947 126.331 23.1106 125.527 23.7422C124.72 24.3741 124.188 25.2619 123.927 26.4075V26.4078Z" fill="#0E2E51"/>
<path d="M148.626 23.5812H144.61V31.023C144.61 31.6433 144.764 32.0973 145.072 32.3828C145.38 32.6697 145.83 32.8296 146.423 32.8661C147.014 32.9009 147.749 32.8965 148.627 32.8487V37.0339C145.475 37.3919 143.254 37.0937 141.963 36.14C140.671 35.185 140.025 33.4805 140.025 31.0233V23.5815H136.933V19.1459H140.025V15.5327L144.61 14.1367V19.1459H148.626V23.5815V23.5812Z" fill="#0E2E51"/>
<path d="M152.359 16.9983C151.6 16.9983 150.943 16.7188 150.387 16.1583C149.83 15.5978 149.551 14.9355 149.551 14.1728C149.551 13.41 149.83 12.7419 150.387 12.1698C150.943 11.5963 151.6 11.311 152.359 11.311C153.118 11.311 153.81 11.5963 154.366 12.1698C154.923 12.7419 155.202 13.41 155.202 14.1728C155.202 14.9355 154.923 15.5978 154.366 16.1583C153.809 16.7188 153.141 16.9983 152.359 16.9983Z" fill="#5498EE"/>
<path d="M154.668 19.1455H150.084V37.0336H154.668V19.1455Z" fill="#0E2E51"/>
<path d="M182 24.5116C182 27.7549 180.982 30.5674 178.947 32.9505L181.503 35.6393L178.019 38.7517L175.316 35.9071C173.397 36.993 171.313 37.5347 169.063 37.5347C165.485 37.5347 162.44 36.277 159.928 33.76C157.416 31.2446 156.161 28.1613 156.161 24.5116C156.161 20.862 157.416 17.7803 159.928 15.2649C162.44 12.7479 165.485 11.4902 169.063 11.4902C172.641 11.4902 175.692 12.7479 178.214 15.2649C180.738 17.7803 182 20.8636 182 24.5116H182ZM169.075 32.7045C170 32.7045 170.925 32.5576 171.852 32.2635L167.748 27.9474L171.231 24.835L175.581 29.409C176.59 27.9795 177.095 26.3475 177.095 24.5119C177.095 22.1274 176.326 20.1607 174.785 18.6089C173.245 17.0599 171.338 16.2841 169.063 16.2841C166.788 16.2841 164.881 17.0602 163.34 18.6089C161.8 20.1607 161.031 22.1274 161.031 24.5119C161.031 26.8964 161.802 28.8297 163.345 30.3801C164.886 31.9305 166.797 32.7048 169.076 32.7048L169.075 32.7045Z" fill="#0E2E51"/>
<path d="M25.2259 19.6721C24.5528 19.8553 23.9124 20.1189 23.316 20.4523C23.1621 20.3237 23.0389 20.1535 22.9656 19.9504L19.5014 10.3704C19.2807 9.7598 19.5935 9.08476 20.2001 8.8626C20.332 8.81419 20.467 8.7915 20.5994 8.7915C21.0768 8.7915 21.5251 9.08808 21.6977 9.56559L25.1618 19.1457C25.2248 19.3199 25.2443 19.4995 25.2259 19.6721Z" fill="#34C347"/>
<path d="M19.1448 2.50435C18.9241 1.89385 18.2535 1.57908 17.647 1.80128C17.0405 2.02348 16.7278 2.69852 16.9485 3.30901L18.3428 7.16492C18.5635 7.77542 19.2341 8.09019 19.8406 7.86799C20.4471 7.64579 20.7598 6.97075 20.5391 6.36025L19.1448 2.50435Z" fill="#34C347"/>
<path d="M19.1825 25.7912C19.0099 26.4485 18.9126 27.1366 18.9005 27.8457C18.7123 27.9159 18.5037 27.9383 18.2917 27.9007L8.31739 26.1304C7.68195 26.0175 7.25759 25.4075 7.36945 24.7676C7.4695 24.1971 7.96256 23.7954 8.51912 23.7954C8.58646 23.7954 8.65462 23.8012 8.72333 23.8134L18.6977 25.5837C18.8791 25.6158 19.0432 25.6886 19.1825 25.7912Z" fill="#34C347"/>
<path d="M1.3712 22.5084C0.735584 22.3956 0.129461 22.8228 0.0173847 23.4626C-0.0946913 24.1024 0.329721 24.7125 0.965336 24.8254L4.97989 25.5379C5.61551 25.6507 6.22163 25.2235 6.3337 24.5837C6.44578 23.9439 6.02137 23.3338 5.38575 23.221L1.3712 22.5084Z" fill="#34C347"/>
<path d="M23.0514 35.3938C23.0176 35.5925 22.9327 35.7847 22.7947 35.9505L16.2845 43.7602C15.8698 44.2579 15.1326 44.3229 14.6382 43.9052C14.3628 43.6725 14.2207 43.3391 14.2207 43.0035C14.2207 42.7366 14.3103 42.4685 14.4942 42.248L21.0044 34.4383C21.1234 34.2955 21.2688 34.1884 21.4274 34.1182C21.9144 34.6059 22.4597 35.0347 23.0514 35.3938Z" fill="#34C347"/>
<path d="M9.69511 48.0036C9.28024 48.5013 9.34473 49.2432 9.83915 49.6609C10.3336 50.0785 11.0707 50.0135 11.4856 49.5159L14.1059 46.3725C14.5207 45.8748 14.4563 45.1328 13.9618 44.7152C13.4674 44.2976 12.7303 44.3625 12.3154 44.8602L9.69511 48.0036Z" fill="#34C347"/>
<path d="M34.7365 47.1376C34.6046 47.186 34.4697 47.2087 34.3372 47.2087C33.8598 47.2087 33.4115 46.9121 33.2389 46.4346L29.7748 36.8545C29.7118 36.6802 29.6923 36.5007 29.7107 36.328C30.3838 36.1449 31.0242 35.8812 31.6206 35.5479C31.7745 35.6765 31.8977 35.8466 31.971 36.0497L35.4352 45.6298C35.6559 46.2404 35.3431 46.9154 34.7365 47.1376Z" fill="#34C347"/>
<path d="M35.7917 53.4952C36.0124 54.1057 36.683 54.4204 37.2895 54.1982C37.896 53.976 38.2087 53.301 37.988 52.6905L36.5938 48.8346C36.373 48.2241 35.7024 47.9093 35.0959 48.1315C34.4894 48.3537 34.1767 49.0288 34.3974 49.6393L35.7917 53.4952Z" fill="#34C347"/>
<path d="M47.5677 31.2328C47.4679 31.8032 46.9746 32.2049 46.4183 32.2049C46.3509 32.2049 46.2828 32.1991 46.2141 32.1869L36.2397 30.4166C36.0583 30.3845 35.8942 30.3118 35.7549 30.2091C35.9275 29.5518 36.0248 28.8637 36.0369 28.1547C36.2251 28.0844 36.4337 28.062 36.6456 28.0996L46.6197 29.8699C47.2554 29.9828 47.6798 30.5929 47.5677 31.2328Z" fill="#34C347"/>
<path d="M53.5653 33.4916C54.2009 33.6044 54.8071 33.1772 54.9191 32.5374C55.0312 31.8976 54.6068 31.2875 53.9712 31.1746L49.9566 30.4621C49.321 30.3493 48.7149 30.7765 48.6028 31.4163C48.4907 32.0561 48.9152 32.6662 49.5508 32.779L53.5653 33.4916Z" fill="#34C347"/>
<path d="M40.7165 12.9968C40.7165 13.2637 40.6269 13.5318 40.443 13.7523L33.9328 21.5621C33.8138 21.7048 33.6684 21.8119 33.5098 21.8821C33.0228 21.3944 32.4775 20.9656 31.8857 20.6065C31.9195 20.4078 32.0045 20.2156 32.1424 20.0498L38.6527 12.2401C39.0674 11.7424 39.8045 11.6774 40.299 12.0951C40.5744 12.3278 40.7165 12.6612 40.7165 12.9968Z" fill="#34C347"/>
<path d="M45.2414 7.99593C45.6563 7.49825 45.5918 6.75626 45.0974 6.33866C44.603 5.92105 43.8658 5.98597 43.451 6.48365L40.8306 9.62702C40.4158 10.1247 40.4803 10.8667 40.9747 11.2843C41.4691 11.7019 42.2062 11.637 42.6211 11.1393L45.2414 7.99593Z" fill="#34C347"/>
<path d="M22.5316 20.9484C21.9682 21.3485 21.4548 21.8158 21.0032 22.3381C20.8144 22.27 20.6401 22.1525 20.5019 21.9865L18.6173 19.7259C18.2023 19.2282 18.2668 18.4862 18.7613 18.0685C18.9803 17.8836 19.2467 17.7935 19.5119 17.7935C19.8453 17.7935 20.1765 17.9362 20.4076 18.2134L22.2922 20.4743C22.4109 20.6167 22.4904 20.7794 22.5316 20.9484Z" fill="#77D4FD"/>
<path d="M10.984 6.9079C10.5692 6.41021 9.83203 6.3453 9.33761 6.7629C8.84319 7.18051 8.7787 7.92249 9.19357 8.42017L16.4899 17.1729C16.9048 17.6706 17.6419 17.7355 18.1363 17.3179C18.6307 16.9003 18.6952 16.1583 18.2803 15.6607L10.984 6.9079Z" fill="#77D4FD"/>
<path d="M19.3631 30.8068C19.2105 30.9368 19.0228 31.0289 18.8117 31.0666L15.9245 31.5789C15.2888 31.6918 14.6827 31.2646 14.5706 30.6247C14.5585 30.5556 14.5527 30.4867 14.5527 30.4189C14.5527 29.8587 14.9515 29.3626 15.5185 29.2619L18.4058 28.7496C18.5877 28.7172 18.7675 28.7291 18.9337 28.7781C18.9959 29.4822 19.1424 30.1619 19.3631 30.8068Z" fill="#77D4FD"/>
<path d="M12.2582 29.8404L1.07959 31.8245C0.443978 31.9374 0.019566 32.5475 0.131642 33.1873C0.243718 33.8271 0.849841 34.2543 1.48546 34.1415L12.6641 32.1574C13.2997 32.0446 13.7241 31.4345 13.612 30.7946C13.4999 30.1548 12.8938 29.7276 12.2582 29.8404Z" fill="#77D4FD"/>
<path d="M25.7776 37.0799L24.775 39.8532C24.5543 40.4637 23.8837 40.7786 23.2771 40.5564C22.8024 40.3824 22.5078 39.9312 22.5078 39.4509C22.5078 39.3173 22.5306 39.1814 22.5787 39.0486L23.5814 36.2754C23.6443 36.1011 23.7438 35.9509 23.8683 35.8306C24.4859 36.1188 25.1433 36.3352 25.8299 36.4688C25.8653 36.6669 25.851 36.8772 25.7776 37.0799Z" fill="#77D4FD"/>
<path d="M21.446 42.1792L17.5638 52.9161C17.343 53.5266 17.6557 54.2016 18.2622 54.4238C18.8687 54.646 19.5393 54.3312 19.7601 53.7208L23.6424 42.9839C23.8631 42.3734 23.5504 41.6984 22.9439 41.4762C22.3374 41.254 21.6668 41.5687 21.446 42.1792Z" fill="#77D4FD"/>
<path d="M36.1756 37.9322C35.9565 38.117 35.6902 38.2072 35.425 38.2072C35.0916 38.2072 34.7604 38.0645 34.5293 37.7873L32.6447 35.5264C32.5259 35.384 32.4465 35.2213 32.4053 35.0522C32.9687 34.6522 33.4821 34.1849 33.9337 33.6626C34.1225 33.7307 34.2967 33.8482 34.435 34.0142L36.3196 36.2748C36.7346 36.7725 36.67 37.5145 36.1756 37.9322Z" fill="#77D4FD"/>
<path d="M38.4479 38.8273C38.033 38.3297 37.2959 38.2647 36.8015 38.6823C36.3071 39.0999 36.2426 39.8419 36.6574 40.3396L43.9538 49.0924C44.3686 49.5901 45.1057 49.655 45.6002 49.2374C46.0946 48.8198 46.1591 48.0778 45.7442 47.5801L38.4479 38.8273Z" fill="#77D4FD"/>
<path d="M40.3845 25.5819C40.3845 26.1421 39.9857 26.6382 39.4187 26.7389L36.5315 27.2513C36.3496 27.2836 36.1698 27.2717 36.0035 27.2228C35.9414 26.5187 35.7949 25.8389 35.5742 25.194C35.7268 25.064 35.9145 24.9719 36.1256 24.9343L39.0128 24.4219C39.6485 24.309 40.2545 24.7362 40.3667 25.3761C40.3788 25.4452 40.3845 25.5141 40.3845 25.5819Z" fill="#77D4FD"/>
<path d="M53.4516 21.859L42.273 23.8431C41.6373 23.9559 41.2129 24.566 41.325 25.2058C41.4371 25.8456 42.0432 26.2729 42.6788 26.16L53.8574 24.1759C54.493 24.0631 54.9174 23.453 54.8054 22.8132C54.6933 22.1734 54.0872 21.7462 53.4516 21.859Z" fill="#77D4FD"/>
<path d="M32.4286 16.5493C32.4286 16.6829 32.4058 16.8188 32.3577 16.9516L31.3551 19.7248C31.2921 19.8991 31.1926 20.0493 31.0681 20.1696C30.4505 19.8814 29.7931 19.665 29.1066 19.5314C29.0708 19.3333 29.0854 19.123 29.1588 18.9203L30.1614 16.1471C30.3821 15.5365 31.0527 15.2216 31.6593 15.4438C32.134 15.6178 32.4286 16.0688 32.4286 16.5493Z" fill="#77D4FD"/>
<path d="M35.1755 2.27884L31.2933 13.0157C31.0725 13.6262 31.3852 14.3012 31.9917 14.5234C32.5982 14.7456 33.2688 14.4309 33.4896 13.8204L37.3719 3.08351C37.5926 2.47301 37.2799 1.79798 36.6734 1.57577C36.0669 1.35357 35.3963 1.66835 35.1755 2.27884Z" fill="#77D4FD"/>
<path d="M28.309 11.0274V18.8856C28.309 19.0718 28.2661 19.2477 28.1897 19.404C27.9519 19.3838 27.7112 19.3736 27.4682 19.3736C27.0131 19.3736 26.5664 19.4093 26.1305 19.4782C26.0297 19.3042 25.9717 19.1016 25.9717 18.8856V11.0274C25.9717 10.3778 26.495 9.85107 27.1403 9.85107C27.4633 9.85107 27.7551 9.98276 27.9668 10.1958C28.1781 10.4085 28.309 10.7026 28.309 11.0274Z" fill="#5498EE"/>
<path d="M28.309 1.17634C28.309 0.526667 27.7857 0 27.1403 0C26.4949 0 25.9717 0.526667 25.9717 1.17634V7.63517C25.9717 8.28485 26.4949 8.81151 27.1403 8.81151C27.7857 8.81151 28.309 8.28485 28.309 7.63517V1.17634Z" fill="#5498EE"/>
<path d="M20.433 23.0728C20.0416 23.6381 19.7156 24.2525 19.4664 24.9051C19.2666 24.906 19.0637 24.8553 18.8782 24.7475L12.1176 20.8184C11.5588 20.4936 11.3673 19.774 11.6899 19.2116C12.0126 18.6488 12.7275 18.456 13.2862 18.7808L20.0468 22.7099C20.2068 22.8028 20.3365 22.9282 20.433 23.0728Z" fill="#5498EE"/>
<path d="M4.81059 13.8554C4.25164 13.5305 3.53691 13.7233 3.2142 14.2859C2.89149 14.8486 3.083 15.568 3.64195 15.8929L9.19881 19.1223C9.75776 19.4471 10.4725 19.2543 10.7952 18.6917C11.1179 18.1291 10.9264 17.4096 10.3674 17.0848L4.81059 13.8554Z" fill="#5498EE"/>
<path d="M20.8061 33.4259C20.7069 33.6016 20.5615 33.7535 20.3752 33.8619L13.6146 37.7907C13.0555 38.1158 12.3409 37.923 12.0183 37.3603C11.9119 37.1749 11.8613 36.9727 11.8613 36.7729C11.8613 36.3665 12.071 35.9712 12.4459 35.7534L19.2065 31.8244C19.3662 31.7314 19.5385 31.6811 19.7106 31.6694C20.0055 32.3005 20.3743 32.8898 20.8061 33.4259Z" fill="#5498EE"/>
<path d="M9.52693 37.449L3.97008 40.6784C3.41113 41.0033 3.21961 41.7227 3.54232 42.2853C3.86503 42.848 4.57976 43.0408 5.13871 42.7159L10.6956 39.4865C11.2545 39.1617 11.446 38.4422 11.1233 37.8796C10.8006 37.317 10.0859 37.1242 9.52693 37.449Z" fill="#5498EE"/>
<path d="M28.9652 37.1146V44.9727C28.9652 45.6223 28.4419 46.1491 27.7966 46.1491C27.4736 46.1491 27.1817 46.0174 26.9701 45.8044C26.7588 45.5916 26.6279 45.2975 26.6279 44.9727V37.1146C26.6279 36.9284 26.6708 36.7524 26.7472 36.5961C26.985 36.6163 27.2257 36.6265 27.4687 36.6265C27.9238 36.6265 28.3704 36.5909 28.8063 36.522C28.9072 36.696 28.9652 36.8985 28.9652 37.1146Z" fill="#5498EE"/>
<path d="M28.9652 48.3648C28.9652 47.7151 28.442 47.1885 27.7966 47.1885C27.1511 47.1885 26.6279 47.7151 26.6279 48.3648V54.8236C26.6279 55.4733 27.1511 56 27.7966 56C28.442 56 28.9652 55.4733 28.9652 54.8236V48.3648Z" fill="#5498EE"/>
<path d="M43.247 36.7888C43.0304 37.1662 42.6376 37.3773 42.2336 37.3773C42.0355 37.3773 41.8345 37.3264 41.6507 37.2196L34.8898 33.2905C34.7298 33.1975 34.5998 33.0722 34.5039 32.9275C34.8953 32.3623 35.2212 31.7479 35.4705 31.0952C35.6703 31.0944 35.8729 31.145 36.0584 31.2529L42.8193 35.182C43.3781 35.5068 43.5696 36.2264 43.247 36.7888Z" fill="#5498EE"/>
<path d="M45.7383 36.8778C45.1794 36.553 44.4646 36.7458 44.1419 37.3084C43.8192 37.871 44.0107 38.5905 44.5697 38.9153L50.1265 42.1447C50.6855 42.4696 51.4002 42.2768 51.7229 41.7142C52.0456 41.1515 51.8541 40.4321 51.2952 40.1072L45.7383 36.8778Z" fill="#5498EE"/>
<path d="M43.0757 19.2275C43.0757 19.6339 42.866 20.0293 42.4911 20.247L35.7305 24.1761C35.5708 24.269 35.3984 24.3194 35.2264 24.331C34.9315 23.7 34.5626 23.1107 34.1309 22.5745C34.2301 22.3988 34.3755 22.247 34.5618 22.1385L41.3224 18.2097C41.8815 17.8846 42.5961 18.0775 42.9187 18.6402C43.0251 18.8255 43.0757 19.0278 43.0757 19.2275Z" fill="#5498EE"/>
<path d="M49.7984 13.2835L44.2416 16.5129C43.6826 16.8377 43.4911 17.5572 43.8138 18.1198C44.1365 18.6825 44.8512 18.8752 45.4102 18.5504L50.9671 15.321C51.526 14.9961 51.7175 14.2767 51.3948 13.7141C51.0721 13.1514 50.3574 12.9587 49.7984 13.2835Z" fill="#5498EE"/>
</g>
<defs>
<clipPath id="clip0_342_2075">
<rect width="182" height="56" fill="white"/>
</clipPath>
</defs>
</svg>
