<svg width="143" height="44" viewBox="0 0 143 44" fill="none" xmlns="http://www.w3.org/2000/svg">
<g clip-path="url(#clip0_176_4319)">
<path d="M59.4481 15.0429H62.9661V28.4228C62.9661 30.5972 62.2537 32.2555 60.83 33.3983C59.4062 34.541 57.6881 35.1129 55.6781 35.1129C54.1703 35.1129 52.8431 34.8223 51.6988 34.2412C50.5534 33.6602 49.6738 32.8081 49.0593 31.6839L52.1318 29.9133C52.8386 31.2241 54.0578 31.8806 55.7895 31.8806C56.9248 31.8806 57.819 31.5808 58.4701 30.9815C59.1223 30.3811 59.4483 29.5288 59.4483 28.4228V26.9051C58.3869 28.3291 56.8973 29.0417 54.9793 29.0417C53.0612 29.0417 51.3533 28.3439 50.0228 26.9475C48.6921 25.5522 48.0264 23.8512 48.0264 21.8451C48.0264 19.839 48.6967 18.1632 50.0364 16.7575C51.3772 15.3517 53.0249 14.6494 54.9793 14.6494C56.9336 14.6494 58.3869 15.362 59.4483 16.786V15.0429H59.4481ZM52.7315 24.614C53.4666 25.3357 54.4018 25.6961 55.5381 25.6961C56.6745 25.6961 57.6084 25.3359 58.3448 24.614C59.0799 23.8934 59.4481 22.9692 59.4481 21.8449C59.4481 20.7206 59.0799 19.8262 58.3448 19.1045C57.6084 18.3839 56.6734 18.0224 55.5381 18.0224C54.4029 18.0224 53.4668 18.3839 52.7315 19.1045C51.9964 19.8262 51.6282 20.74 51.6282 21.8449C51.6282 22.9498 51.9964 23.8934 52.7315 24.614Z" fill="#0E2E51"/>
<path d="M67.8808 23.5606C68.365 25.322 69.6773 26.2028 71.818 26.2028C73.1951 26.2028 74.2383 25.7339 74.9452 24.797L77.8494 26.483C76.4723 28.4891 74.4429 29.4912 71.7623 29.4912C69.4534 29.4912 67.6012 28.7889 66.2046 27.3831C64.8081 25.9774 64.1104 24.2069 64.1104 22.0703C64.1104 19.9338 64.799 18.1872 66.1772 16.7712C67.5543 15.3574 69.3225 14.6494 71.4826 14.6494C73.5303 14.6494 75.2198 15.362 76.5516 16.786C77.8823 18.21 78.548 19.9714 78.548 22.0703C78.548 22.5392 78.5014 23.0357 78.4083 23.5606H67.8806H67.8808ZM67.8251 20.7491H74.9452C74.7406 19.7929 74.3178 19.0814 73.6747 18.6126C73.0327 18.1448 72.3022 17.9102 71.4828 17.9102C70.5147 17.9102 69.7136 18.1585 69.0819 18.6547C68.4479 19.1512 68.0298 19.8488 67.8251 20.7489V20.7491Z" fill="#0E2E51"/>
<path d="M87.4282 14.6494C88.9543 14.6494 90.2154 15.1652 91.212 16.1958C92.2073 17.2264 92.7062 18.6504 92.7062 20.4678V29.0978H89.1042V20.9174C89.1042 19.9807 88.8519 19.2647 88.3496 18.7671C87.8473 18.2706 87.177 18.0226 86.3396 18.0226C85.4078 18.0226 84.6636 18.3132 84.1056 18.8943C83.5465 19.4753 83.2671 20.347 83.2671 21.5078V29.098H79.665V15.0429H83.2671V16.6166C84.1421 15.3059 85.5293 14.6494 87.4282 14.6494Z" fill="#0E2E51"/>
<path d="M97.4267 23.5606C97.9109 25.322 99.2232 26.2028 101.364 26.2028C102.741 26.2028 103.784 25.7339 104.491 24.797L107.395 26.483C106.018 28.4891 103.989 29.4912 101.308 29.4912C98.9993 29.4912 97.1471 28.7889 95.7505 27.3831C94.354 25.9774 93.6562 24.2069 93.6562 22.0703C93.6562 19.9338 94.3449 18.1872 95.7231 16.7712C97.1002 15.3574 98.8684 14.6494 101.029 14.6494C103.076 14.6494 104.766 15.362 106.097 16.786C107.428 18.21 108.094 19.9714 108.094 22.0703C108.094 22.5392 108.047 23.0357 107.954 23.5606H97.4265H97.4267ZM97.371 20.7491H104.491C104.287 19.7929 103.864 19.0814 103.221 18.6126C102.579 18.1448 101.848 17.9102 101.029 17.9102C100.061 17.9102 99.2595 18.1585 98.6278 18.6547C97.9938 19.1512 97.5757 19.8488 97.371 20.7489V20.7491Z" fill="#0E2E51"/>
<path d="M116.778 18.528H113.622V24.3751C113.622 24.8625 113.743 25.2192 113.985 25.4435C114.227 25.6689 114.58 25.7946 115.046 25.8233C115.511 25.8507 116.088 25.8472 116.778 25.8096V29.098C114.302 29.3793 112.557 29.1449 111.542 28.3957C110.527 27.6453 110.019 26.3061 110.019 24.3753V18.5282H107.59V15.0431H110.019V12.2042L113.622 11.1073V15.0431H116.778V18.5282V18.528Z" fill="#0E2E51"/>
<path d="M119.71 13.3558C119.114 13.3558 118.598 13.1363 118.161 12.6959C117.723 12.2555 117.504 11.7351 117.504 11.1358C117.504 10.5365 117.723 10.0116 118.161 9.56202C118.598 9.11141 119.114 8.8873 119.71 8.8873C120.307 8.8873 120.85 9.11141 121.288 9.56202C121.725 10.0116 121.944 10.5365 121.944 11.1358C121.944 11.7351 121.725 12.2555 121.288 12.6959C120.85 13.1363 120.325 13.3558 119.71 13.3558Z" fill="#5498EE"/>
<path d="M121.525 15.0429H117.923V29.0978H121.525V15.0429Z" fill="#0E2E51"/>
<path d="M143 19.259C143 21.8073 142.2 24.0171 140.601 25.8896L142.609 28.0022L139.872 30.4476L137.748 28.2126C136.241 29.0658 134.603 29.4914 132.835 29.4914C130.024 29.4914 127.632 28.5032 125.658 26.5256C123.684 24.5492 122.698 22.1266 122.698 19.259C122.698 16.3914 123.684 13.9701 125.658 11.9938C127.632 10.0161 130.024 9.02792 132.835 9.02792C135.646 9.02792 138.044 10.0161 140.026 11.9938C142.008 13.9701 143 16.3927 143 19.259H143ZM132.845 25.6963C133.571 25.6963 134.299 25.5809 135.027 25.3498L131.802 21.9586L134.538 19.5131L137.957 23.107C138.75 21.9838 139.146 20.7015 139.146 19.2592C139.146 17.3857 138.542 15.8404 137.332 14.6211C136.121 13.4041 134.623 12.7946 132.835 12.7946C131.048 12.7946 129.549 13.4043 128.339 14.6211C127.129 15.8404 126.524 17.3857 126.524 19.2592C126.524 21.1328 127.13 22.6518 128.342 23.8699C129.554 25.0881 131.055 25.6965 132.846 25.6965L132.845 25.6963Z" fill="#0E2E51"/>
<path d="M19.821 15.4567C19.2921 15.6007 18.7889 15.8078 18.3203 16.0697C18.1994 15.9687 18.1027 15.835 18.045 15.6754L15.3232 8.14823C15.1498 7.66849 15.3955 7.1381 15.8721 6.96355C15.9758 6.92551 16.0818 6.90768 16.1859 6.90768C16.561 6.90768 16.9132 7.14071 17.0488 7.51589L19.7706 15.0431C19.8201 15.18 19.8354 15.3211 19.821 15.4567Z" fill="#34C347"/>
<path d="M15.0427 1.96786C14.8692 1.48818 14.3423 1.24086 13.8658 1.41545C13.3892 1.59004 13.1435 2.12042 13.317 2.6001L14.4125 5.62974C14.5859 6.10941 15.1128 6.35674 15.5893 6.18215C16.0659 6.00756 16.3116 5.47718 16.1381 4.9975L15.0427 1.96786Z" fill="#34C347"/>
<path d="M15.0721 20.2646C14.9365 20.7811 14.8601 21.3217 14.8506 21.8788C14.7026 21.934 14.5387 21.9516 14.3722 21.9221L6.53523 20.5311C6.03596 20.4424 5.70253 19.9631 5.79042 19.4603C5.86903 19.0121 6.25644 18.6965 6.69374 18.6965C6.74664 18.6965 6.8002 18.701 6.85419 18.7106L14.6912 20.1016C14.8337 20.1268 14.9626 20.184 15.0721 20.2646Z" fill="#34C347"/>
<path d="M1.07765 17.6853C0.578238 17.5966 0.101998 17.9323 0.0139384 18.435C-0.0741213 18.9377 0.259346 19.4171 0.758757 19.5057L3.91305 20.0656C4.41246 20.1542 4.8887 19.8185 4.97676 19.3158C5.06482 18.8131 4.73135 18.3338 4.23194 18.2451L1.07765 17.6853Z" fill="#34C347"/>
<path d="M18.1123 27.8094C18.0857 27.9655 18.019 28.1166 17.9106 28.2468L12.7954 34.383C12.4695 34.774 11.8903 34.8251 11.5019 34.4969C11.2855 34.3141 11.1738 34.0521 11.1738 33.7885C11.1738 33.5787 11.2442 33.3681 11.3887 33.1948L16.5039 27.0586C16.5974 26.9464 16.7116 26.8623 16.8362 26.8071C17.2189 27.1903 17.6473 27.5273 18.1123 27.8094Z" fill="#34C347"/>
<path d="M7.61898 37.7174C7.29301 38.1084 7.34368 38.6914 7.73215 39.0195C8.12063 39.3477 8.6998 39.2967 9.02576 38.9056L11.0846 36.4358C11.4105 36.0448 11.3599 35.4618 10.9714 35.1337C10.5829 34.8056 10.0038 34.8566 9.6778 35.2476L7.61898 37.7174Z" fill="#34C347"/>
<path d="M27.2939 37.0367C27.1902 37.0747 27.0842 37.0925 26.9801 37.0925C26.605 37.0925 26.2528 36.8595 26.1172 36.4843L23.3954 28.9571C23.3459 28.8202 23.3306 28.6791 23.3451 28.5435C23.8739 28.3996 24.3771 28.1924 24.8457 27.9305C24.9666 28.0316 25.0634 28.1652 25.121 28.3248L27.8428 35.852C28.0162 36.3317 27.7705 36.8621 27.2939 37.0367Z" fill="#34C347"/>
<path d="M28.1234 42.0323C28.2968 42.5119 28.8237 42.7593 29.3002 42.5847C29.7768 42.4101 30.0225 41.8797 29.849 41.4L28.7536 38.3704C28.5801 37.8907 28.0532 37.6434 27.5767 37.818C27.1001 37.9926 26.8544 38.5229 27.0279 39.0026L28.1234 42.0323Z" fill="#34C347"/>
<path d="M37.3743 24.5399C37.2959 24.9881 36.9082 25.3037 36.4712 25.3037C36.4182 25.3037 36.3647 25.2992 36.3107 25.2896L28.4737 23.8986C28.3312 23.8734 28.2023 23.8163 28.0928 23.7356C28.2284 23.2191 28.3048 22.6785 28.3143 22.1214C28.4623 22.0662 28.6262 22.0486 28.7927 22.0781L36.6294 23.4691C37.1289 23.5578 37.4624 24.0371 37.3743 24.5399Z" fill="#34C347"/>
<path d="M42.0874 26.3148C42.5868 26.4034 43.063 26.0678 43.1511 25.5651C43.2392 25.0624 42.9057 24.583 42.4063 24.4943L39.252 23.9345C38.7526 23.8459 38.2763 24.1815 38.1883 24.6842C38.1002 25.1869 38.4337 25.6663 38.9331 25.7549L42.0874 26.3148Z" fill="#34C347"/>
<path d="M31.9921 10.2118C31.9921 10.4215 31.9217 10.6322 31.7773 10.8054L26.6621 16.9416C26.5686 17.0538 26.4544 17.1379 26.3298 17.1931C25.9471 16.8099 25.5186 16.473 25.0537 16.1908C25.0803 16.0347 25.147 15.8837 25.2554 15.7535L30.3706 9.61724C30.6965 9.22619 31.2756 9.17511 31.6641 9.50334C31.8805 9.68615 31.9921 9.94808 31.9921 10.2118Z" fill="#34C347"/>
<path d="M35.548 6.28242C35.874 5.89139 35.8233 5.3084 35.4348 4.98028C35.0464 4.65216 34.4672 4.70317 34.1412 5.0942L32.0824 7.56399C31.7564 7.95502 31.8071 8.53801 32.1956 8.86613C32.5841 9.19425 33.1632 9.14324 33.4892 8.75221L35.548 6.28242Z" fill="#34C347"/>
<path d="M17.7045 16.4593C17.2618 16.7736 16.8584 17.1407 16.5036 17.5511C16.3553 17.4977 16.2183 17.4053 16.1097 17.2749L14.629 15.4987C14.3029 15.1076 14.3536 14.5246 14.7421 14.1964C14.9142 14.0512 15.1235 13.9803 15.3319 13.9803C15.5938 13.9803 15.854 14.0925 16.0357 14.3103L17.5164 16.0867C17.6097 16.1986 17.6721 16.3265 17.7045 16.4593Z" fill="#77D4FD"/>
<path d="M8.63079 5.42759C8.30482 5.03655 7.72566 4.98555 7.33718 5.31367C6.94871 5.64178 6.89804 6.22477 7.22401 6.61581L12.9568 13.493C13.2828 13.884 13.862 13.935 14.2504 13.6069C14.6389 13.2788 14.6896 12.6958 14.3636 12.3048L8.63079 5.42759Z" fill="#77D4FD"/>
<path d="M15.2141 24.2051C15.0943 24.3073 14.9468 24.3797 14.7809 24.4093L12.5124 24.8118C12.0129 24.9005 11.5367 24.5649 11.4486 24.0621C11.4391 24.0078 11.4346 23.9536 11.4346 23.9004C11.4346 23.4602 11.7479 23.0705 12.1934 22.9913L14.462 22.5888C14.6049 22.5633 14.7461 22.5727 14.8768 22.6111C14.9256 23.1644 15.0407 23.6985 15.2141 24.2051Z" fill="#77D4FD"/>
<path d="M9.63179 23.4457L0.848601 25.0046C0.349189 25.0933 0.0157221 25.5727 0.103782 26.0754C0.191842 26.5781 0.668081 26.9137 1.16749 26.8251L9.95068 25.2662C10.4501 25.1775 10.7836 24.6981 10.6955 24.1954C10.6074 23.6927 10.1312 23.3571 9.63179 23.4457Z" fill="#77D4FD"/>
<path d="M20.2537 29.1343L19.4659 31.3133C19.2925 31.793 18.7656 32.0404 18.289 31.8658C17.9161 31.7291 17.6846 31.3746 17.6846 30.9972C17.6846 30.8922 17.7025 30.7855 17.7403 30.6811L18.5281 28.5022C18.5775 28.3652 18.6557 28.2472 18.7535 28.1526C19.2388 28.3792 19.7553 28.5491 20.2947 28.6541C20.3226 28.8098 20.3114 28.975 20.2537 29.1343Z" fill="#77D4FD"/>
<path d="M16.8507 33.141L13.8004 41.5771C13.6269 42.0568 13.8726 42.5871 14.3492 42.7617C14.8257 42.9363 15.3526 42.689 15.5261 42.2093L18.5764 33.7732C18.7499 33.2936 18.5042 32.7632 18.0276 32.5886C17.5511 32.414 17.0242 32.6613 16.8507 33.141Z" fill="#77D4FD"/>
<path d="M28.4233 29.8038C28.2512 29.949 28.042 30.0199 27.8336 30.0199C27.5716 30.0199 27.3114 29.9077 27.1298 29.6899L25.649 27.9135C25.5557 27.8016 25.4933 27.6738 25.4609 27.541C25.9036 27.2266 26.307 26.8595 26.6618 26.4491C26.8102 26.5026 26.9471 26.595 27.0557 26.7254L28.5365 28.5015C28.8626 28.8926 28.8118 29.4756 28.4233 29.8038Z" fill="#77D4FD"/>
<path d="M30.2089 30.507C29.8829 30.1159 29.3038 30.0649 28.9153 30.393C28.5268 30.7212 28.4762 31.3041 28.8021 31.6952L34.535 38.5724C34.8609 38.9634 35.4401 39.0144 35.8286 38.6863C36.217 38.3582 36.2677 37.7752 35.9417 37.3841L30.2089 30.507Z" fill="#77D4FD"/>
<path d="M31.7307 20.0999C31.7307 20.54 31.4174 20.9298 30.9719 21.0089L28.7033 21.4115C28.5604 21.4369 28.4191 21.4276 28.2885 21.3891C28.2397 20.8359 28.1246 20.3018 27.9512 19.7951C28.071 19.6929 28.2185 19.6205 28.3844 19.591L30.6529 19.1884C31.1524 19.0997 31.6286 19.4353 31.7167 19.9381C31.7262 19.9925 31.7307 20.0466 31.7307 20.0999Z" fill="#77D4FD"/>
<path d="M41.998 17.1749L33.2148 18.7338C32.7154 18.8224 32.3819 19.3018 32.47 19.8045C32.5581 20.3072 33.0343 20.6429 33.5337 20.5542L42.3169 18.9953C42.8163 18.9067 43.1498 18.4273 43.0617 17.9246C42.9737 17.4219 42.4974 17.0862 41.998 17.1749Z" fill="#77D4FD"/>
<path d="M25.4803 13.003C25.4803 13.108 25.4624 13.2147 25.4246 13.3191L24.6368 15.498C24.5874 15.635 24.5092 15.753 24.4114 15.8476C23.9261 15.6211 23.4096 15.4511 22.8701 15.3461C22.8421 15.1904 22.8535 15.0252 22.9112 14.8659L23.699 12.687C23.8724 12.2072 24.3993 11.9598 24.8759 12.1344C25.2488 12.2711 25.4803 12.6254 25.4803 13.003Z" fill="#77D4FD"/>
<path d="M27.6388 1.79053L24.5885 10.2266C24.415 10.7063 24.6607 11.2367 25.1373 11.4113C25.6138 11.5859 26.1407 11.3385 26.3141 10.8589L29.3645 2.42277C29.538 1.94309 29.2923 1.4127 28.8157 1.23812C28.3392 1.06353 27.8123 1.31085 27.6388 1.79053Z" fill="#77D4FD"/>
<path d="M22.2427 8.6645V14.8388C22.2427 14.9851 22.209 15.1233 22.149 15.2461C21.9622 15.2303 21.773 15.2222 21.5821 15.2222C21.2245 15.2222 20.8736 15.2503 20.5311 15.3044C20.4518 15.1677 20.4062 15.0085 20.4062 14.8388V8.6645C20.4062 8.15411 20.8174 7.74023 21.3245 7.74023C21.5782 7.74023 21.8075 7.8437 21.9738 8.01108C22.1399 8.17824 22.2427 8.40931 22.2427 8.6645Z" fill="#5498EE"/>
<path d="M22.2427 0.92427C22.2427 0.41381 21.8316 0 21.3245 0C20.8173 0 20.4062 0.41381 20.4062 0.92427V5.99906C20.4062 6.50952 20.8173 6.92333 21.3245 6.92333C21.8316 6.92333 22.2427 6.50952 22.2427 5.99906V0.92427Z" fill="#5498EE"/>
<path d="M16.0542 18.1287C15.7467 18.5728 15.4906 19.0556 15.2947 19.5683C15.1377 19.569 14.9784 19.5292 14.8326 19.4444L9.52068 16.3573C9.08166 16.1021 8.93114 15.5367 9.18466 15.0948C9.43819 14.6527 9.99987 14.5012 10.4389 14.7564L15.7508 17.8435C15.8765 17.9165 15.9784 18.015 16.0542 18.1287Z" fill="#5498EE"/>
<path d="M3.77982 10.8862C3.34064 10.6309 2.77907 10.7824 2.52551 11.2245C2.27196 11.6665 2.42243 12.2318 2.8616 12.487L7.22771 15.0244C7.66688 15.2797 8.22845 15.1282 8.48201 14.6861C8.73557 14.2441 8.5851 13.6788 8.14592 13.4235L3.77982 10.8862Z" fill="#5498EE"/>
<path d="M16.3474 26.2632C16.2694 26.4013 16.1552 26.5206 16.0088 26.6058L10.6969 29.6927C10.2576 29.9481 9.69617 29.7966 9.44264 29.3545C9.35907 29.2088 9.31934 29.0499 9.31934 28.893C9.31934 28.5737 9.4841 28.2631 9.77866 28.092L15.0906 25.0048C15.216 24.9318 15.3514 24.8922 15.4866 24.8831C15.7183 25.3789 16.0081 25.842 16.3474 26.2632Z" fill="#5498EE"/>
<path d="M7.48552 29.4246L3.11942 31.962C2.68024 32.2172 2.52977 32.7825 2.78332 33.2246C3.03688 33.6666 3.59845 33.8181 4.03763 33.5629L8.40373 31.0255C8.84291 30.7703 8.99338 30.205 8.73982 29.7629C8.48626 29.3208 7.92469 29.1694 7.48552 29.4246Z" fill="#5498EE"/>
<path d="M22.7583 29.1615V35.3357C22.7583 35.8461 22.3471 36.26 21.8401 36.26C21.5863 36.26 21.357 36.1565 21.1907 35.9892C21.0247 35.822 20.9219 35.5909 20.9219 35.3357V29.1615C20.9219 29.0152 20.9556 28.8769 21.0156 28.7541C21.2024 28.77 21.3916 28.778 21.5825 28.778C21.9401 28.778 22.291 28.75 22.6335 28.6959C22.7127 28.8326 22.7583 28.9917 22.7583 29.1615Z" fill="#5498EE"/>
<path d="M22.7583 38.001C22.7583 37.4905 22.3472 37.0767 21.8401 37.0767C21.333 37.0767 20.9219 37.4905 20.9219 38.001V43.0758C20.9219 43.5862 21.333 44 21.8401 44C22.3472 44 22.7583 43.5862 22.7583 43.0758V38.001Z" fill="#5498EE"/>
<path d="M33.9799 28.9054C33.8097 29.2019 33.5011 29.3678 33.1837 29.3678C33.028 29.3678 32.8701 29.3278 32.7257 29.2438L27.4135 26.1567C27.2879 26.0837 27.1857 25.9852 27.1104 25.8715C27.4179 25.4274 27.674 24.9446 27.8698 24.4319C28.0268 24.4312 28.186 24.471 28.3318 24.5558L33.6439 27.6429C34.0829 27.8981 34.2334 28.4635 33.9799 28.9054Z" fill="#5498EE"/>
<path d="M35.937 28.9756C35.4979 28.7204 34.9363 28.8718 34.6827 29.3139C34.4292 29.756 34.5797 30.3213 35.0188 30.5765L39.3849 33.1139C39.8241 33.3691 40.3857 33.2176 40.6392 32.7756C40.8928 32.3335 40.7423 31.7682 40.3031 31.513L35.937 28.9756Z" fill="#5498EE"/>
<path d="M33.8454 15.1072C33.8454 15.4265 33.6807 15.7372 33.3861 15.9082L28.0742 18.9954C27.9487 19.0684 27.8133 19.108 27.6782 19.1171C27.4464 18.6213 27.1566 18.1583 26.8174 17.737C26.8953 17.599 27.0096 17.4796 27.156 17.3944L32.4679 14.3075C32.9071 14.0521 33.4686 14.2036 33.7221 14.6457C33.8057 14.7914 33.8454 14.9503 33.8454 15.1072Z" fill="#5498EE"/>
<path d="M39.1271 10.4371L34.761 12.9745C34.3218 13.2297 34.1714 13.795 34.4249 14.2371C34.6785 14.6791 35.2401 14.8306 35.6792 14.5754L40.0453 12.038C40.4845 11.7827 40.635 11.2175 40.3814 10.7754C40.1279 10.3333 39.5663 10.1819 39.1271 10.4371Z" fill="#5498EE"/>
</g>
<defs>
<clipPath id="clip0_176_4319">
<rect width="143" height="44" fill="white"/>
</clipPath>
</defs>
</svg>
